# Blender 3.6.2
# www.blender.org
o Cube
v -1.000000 1.000000 1.000000
v -1.000000 -1.000000 1.000000
v -1.000000 1.000000 -1.000000
v -1.000000 -1.000000 -1.000000
v 1.000000 1.000000 1.000000
v 1.000000 -1.000000 1.000000
v 1.000000 1.000000 -1.000000
v 1.000000 -1.000000 -1.000000
vn -0.0000 1.0000 -0.0000
vn -0.0000 -0.0000 -1.0000
vn 1.0000 -0.0000 -0.0000
vn -0.0000 -1.0000 -0.0000
vn -1.0000 -0.0000 -0.0000
vn -0.0000 -0.0000 1.0000
vt 1.000000 0.000000
vt 0.000000 1.000000
vt 0.006689 0.013096
vt 0.999900 0.999900
vt 0.000100 0.000100
vt 0.999900 0.000100
vt 0.000100 0.000100
vt 0.999900 0.999900
vt 0.000100 0.999900
vt 0.000100 0.999900
vt 0.999900 0.000100
vt 0.999900 0.999900
vt -0.001570 -0.003686
vt 1.001570 0.999454
vt -0.001569 0.999453
vt 0.989718 0.996125
vt 0.000100 0.999900
vt 0.999900 0.000100
vt 0.000100 0.000100
vt 1.001570 -0.003686
s 0
f 5/1/1 3/2/1 1/3/1
f 3/4/2 8/5/2 4/6/2
f 7/7/3 6/8/3 8/9/3
f 2/10/4 8/11/4 6/12/4
f 1/13/5 4/14/5 2/15/5
f 5/7/6 2/8/6 6/9/6
f 5/1/1 7/16/1 3/2/1
f 3/4/2 7/17/2 8/5/2
f 7/7/3 5/18/3 6/8/3
f 2/10/4 4/19/4 8/11/4
f 1/13/5 3/20/5 4/14/5
f 5/7/6 1/18/6 2/8/6
